<svg xmlns="http://www.w3.org/2000/svg" viewBox="0 0 120 120" role="img" aria-labelledby="title desc">
  <title id="title">Wayne Rents Logo</title>
  <desc id="desc">Circular monogram logo with the letters W and R.</desc>
  <defs>
    <linearGradient id="g" x1="0%" y1="0%" x2="100%" y2="100%">
      <stop offset="0%" stop-color="#29ca8e"/>
      <stop offset="100%" stop-color="#1f9f71"/>
    </linearGradient>
  </defs>
  <circle cx="60" cy="60" r="54" fill="url(#g)"/>
  <circle cx="60" cy="60" r="50" fill="none" stroke="#ffffff" stroke-width="2" opacity="0.7"/>
  <path d="M24 35h10l8 37 9-30h8l9 30 8-37h10l-13 50h-9l-9-29-9 29h-9z" fill="#ffffff"/>
  <rect x="64" y="28" width="32" height="58" rx="8" fill="#ffffff" opacity="0.12"/>
  <path d="M74 38h9c10 0 16 5 16 14 0 6-3 10-8 12l10 16h-10l-8-14h-9v14h-9V38zm9 20c5 0 8-2 8-6s-3-6-8-6h-9v12z" fill="#ffffff"/>
</svg>
